<svg xmlns="http://www.w3.org/2000/svg" width="1400" height="900" viewBox="0 0 1400 900" role="img" aria-labelledby="title desc">
  <title id="title">Manage Account Security View</title>
  <desc id="desc">Documentation illustration of the Manage Account security settings page in the authentication module.</desc>
  <rect width="1400" height="900" rx="28" fill="#f8fafc"/>
  <rect x="40" y="40" width="320" height="820" rx="24" fill="#f5f5f4" stroke="#d6d3d1" stroke-width="2"/>
  <text x="95" y="105" font-size="34" font-family="Arial, sans-serif" font-weight="700" fill="#292524">Account</text>
  <text x="95" y="138" font-size="18" font-family="Arial, sans-serif" fill="#78716c">Manage your account info.</text>

  <text x="120" y="225" font-size="20" font-family="Arial, sans-serif" fill="#78716c">Profile</text>
  <rect x="60" y="250" width="270" height="56" rx="12" fill="#e7e5e4"/>
  <text x="120" y="285" font-size="20" font-family="Arial, sans-serif" font-weight="700" fill="#44403c">Security</text>

  <text x="110" y="780" font-size="18" font-family="Arial, sans-serif" fill="#78716c">Secured by Clerk</text>
  <text x="110" y="830" font-size="18" font-family="Arial, sans-serif" font-weight="700" fill="#f97316">Development mode</text>

  <rect x="360" y="40" width="1000" height="820" rx="24" fill="#ffffff" stroke="#d6d3d1" stroke-width="2"/>
  <text x="420" y="110" font-size="34" font-family="Arial, sans-serif" font-weight="700" fill="#292524">Security</text>
  <line x1="420" y1="155" x2="1290" y2="155" stroke="#e7e5e4" stroke-width="2"/>

  <text x="420" y="225" font-size="22" font-family="Arial, sans-serif" font-weight="700" fill="#292524">Password</text>
  <text x="760" y="225" font-size="22" font-family="Arial, sans-serif" fill="#292524">Set password</text>
  <line x1="420" y1="275" x2="1290" y2="275" stroke="#e7e5e4" stroke-width="2"/>

  <text x="420" y="340" font-size="22" font-family="Arial, sans-serif" font-weight="700" fill="#292524">Active devices</text>

  <rect x="760" y="320" width="40" height="28" fill="#0f172a"/>
  <text x="830" y="340" font-size="22" font-family="Arial, sans-serif" fill="#292524">Windows</text>
  <rect x="935" y="315" width="100" height="34" rx="10" fill="#f5f5f4" stroke="#d6d3d1"/>
  <text x="952" y="338" font-size="18" font-family="Arial, sans-serif" fill="#78716c">This device</text>
  <text x="830" y="385" font-size="22" font-family="Arial, sans-serif" fill="#78716c">Edge 147.0.0.0</text>
  <text x="830" y="430" font-size="22" font-family="Arial, sans-serif" fill="#78716c">182.76.34.92 (Chennai, IN)</text>
  <text x="830" y="475" font-size="22" font-family="Arial, sans-serif" fill="#78716c">Today at 8:58 PM</text>

  <rect x="760" y="520" width="40" height="28" fill="#0f172a"/>
  <text x="830" y="540" font-size="22" font-family="Arial, sans-serif" fill="#292524">Windows</text>
  <text x="830" y="585" font-size="22" font-family="Arial, sans-serif" fill="#78716c">Edge 146.0.0.0</text>
  <text x="830" y="630" font-size="22" font-family="Arial, sans-serif" fill="#78716c">182.76.34.92 (Chennai, IN)</text>
  <text x="830" y="675" font-size="22" font-family="Arial, sans-serif" fill="#78716c">Last Saturday at 7:56 PM</text>

  <line x1="420" y1="720" x2="1290" y2="720" stroke="#e7e5e4" stroke-width="2"/>
  <text x="420" y="785" font-size="22" font-family="Arial, sans-serif" font-weight="700" fill="#292524">Delete account</text>
  <text x="770" y="785" font-size="24" font-family="Arial, sans-serif" font-weight="700" fill="#ef4444">Delete account</text>

  <rect x="1290" y="55" width="50" height="50" rx="12" fill="#fafaf9" stroke="#d6d3d1"/>
  <text x="1307" y="89" font-size="30" font-family="Arial, sans-serif" fill="#78716c">×</text>
</svg>
