<svg xmlns="http://www.w3.org/2000/svg" width="1400" height="900" viewBox="0 0 1400 900" role="img" aria-labelledby="title desc">
  <title id="title">Dashboard Overview Image</title>
  <desc id="desc">A report-style visual overview of the Talent IQ dashboard showing major interface regions.</desc>
  <rect width="1400" height="900" rx="28" fill="#eef2ff"/>
  <rect x="40" y="40" width="1320" height="70" rx="18" fill="#ffffff" stroke="#c7d2fe" stroke-width="2"/>
  <text x="90" y="85" font-size="28" font-family="Arial, sans-serif" font-weight="700" fill="#312e81">Talent IQ Dashboard</text>
  <text x="1080" y="85" font-size="18" font-family="Arial, sans-serif" fill="#6366f1">Protected user workspace</text>

  <rect x="60" y="140" width="1280" height="170" rx="24" fill="#ffffff" stroke="#c7d2fe" stroke-width="2"/>
  <text x="100" y="205" font-size="26" font-family="Arial, sans-serif" font-weight="700" fill="#1f2937">Welcome back, User</text>
  <text x="100" y="240" font-size="18" font-family="Arial, sans-serif" fill="#6b7280">Ready to level up your coding skills?</text>
  <rect x="930" y="175" width="210" height="65" rx="18" fill="#6366f1"/>
  <text x="985" y="217" font-size="22" font-family="Arial, sans-serif" font-weight="700" fill="#ffffff">Create Session</text>
  <rect x="1160" y="165" width="150" height="85" rx="18" fill="#f8fafc" stroke="#cbd5e1" stroke-width="2"/>
  <text x="1185" y="195" font-size="15" font-family="Arial, sans-serif" fill="#6b7280">Join with room code</text>
  <rect x="1180" y="208" width="95" height="24" rx="8" fill="#ffffff" stroke="#d1d5db"/>
  <text x="1190" y="225" font-size="12" font-family="Arial, sans-serif" fill="#9ca3af">Enter code</text>

  <rect x="60" y="340" width="280" height="220" rx="24" fill="#ffffff" stroke="#c7d2fe" stroke-width="2"/>
  <text x="95" y="390" font-size="24" font-family="Arial, sans-serif" font-weight="700" fill="#1f2937">Stats Cards</text>
  <rect x="90" y="425" width="220" height="55" rx="16" fill="#eef2ff"/>
  <text x="110" y="460" font-size="20" font-family="Arial, sans-serif" fill="#4338ca">Active Sessions</text>
  <rect x="90" y="495" width="220" height="55" rx="16" fill="#f5f3ff"/>
  <text x="110" y="530" font-size="20" font-family="Arial, sans-serif" fill="#7c3aed">Total Sessions</text>

  <rect x="370" y="340" width="970" height="220" rx="24" fill="#ffffff" stroke="#c7d2fe" stroke-width="2"/>
  <text x="410" y="390" font-size="24" font-family="Arial, sans-serif" font-weight="700" fill="#1f2937">Live Sessions</text>
  <rect x="410" y="425" width="890" height="48" rx="14" fill="#f8fafc" stroke="#e5e7eb"/>
  <text x="440" y="455" font-size="18" font-family="Arial, sans-serif" fill="#1f2937">Problem title • difficulty • host • members • Join/Rejoin</text>
  <rect x="410" y="490" width="890" height="48" rx="14" fill="#f8fafc" stroke="#e5e7eb"/>
  <text x="440" y="520" font-size="18" font-family="Arial, sans-serif" fill="#1f2937">Session status controls support open/full room behavior</text>

  <rect x="60" y="590" width="1280" height="250" rx="24" fill="#ffffff" stroke="#c7d2fe" stroke-width="2"/>
  <text x="100" y="640" font-size="24" font-family="Arial, sans-serif" font-weight="700" fill="#1f2937">Your Past Sessions</text>
  <rect x="100" y="680" width="250" height="120" rx="18" fill="#f8fafc" stroke="#e5e7eb"/>
  <rect x="380" y="680" width="250" height="120" rx="18" fill="#f8fafc" stroke="#e5e7eb"/>
  <rect x="660" y="680" width="250" height="120" rx="18" fill="#f8fafc" stroke="#e5e7eb"/>
  <rect x="940" y="680" width="250" height="120" rx="18" fill="#f8fafc" stroke="#e5e7eb"/>
  <text x="130" y="715" font-size="18" font-family="Arial, sans-serif" fill="#374151">Problem • difficulty</text>
  <text x="130" y="745" font-size="16" font-family="Arial, sans-serif" fill="#6b7280">time • members • date</text>
  <text x="410" y="715" font-size="18" font-family="Arial, sans-serif" fill="#374151">Problem • difficulty</text>
  <text x="410" y="745" font-size="16" font-family="Arial, sans-serif" fill="#6b7280">time • members • date</text>
  <text x="690" y="715" font-size="18" font-family="Arial, sans-serif" fill="#374151">Problem • difficulty</text>
  <text x="690" y="745" font-size="16" font-family="Arial, sans-serif" fill="#6b7280">time • members • date</text>
  <text x="970" y="715" font-size="18" font-family="Arial, sans-serif" fill="#374151">Problem • difficulty</text>
  <text x="970" y="745" font-size="16" font-family="Arial, sans-serif" fill="#6b7280">time • members • date</text>
</svg>
